# xmcd CD database file
# Copyright (C) 1995-1998 Ti Kan
#
# Track frame offsets:
#	150
#	20525
#	37525
#	57850
#	77237
#	96500
#	120450
#	137875
#	156137
#	173312
#
# Disc length: 2571 seconds
#
# Revision: 1
# Processed by: cddbd v1.4b41PL1 Copyright (c) Steve Scherf et al.
# Submitted via: CDex 1.30
#
DISCID=710a090a
DTITLE=Romantic Interludes - Slow Dance
DYEAR=2000
DGENRE=Blues
TTITLE0=Wind in Our Window
TTITLE1=Mornings With You
TTITLE2=Still on My Mind
TTITLE3=Allison
TTITLE4=Just Because
TTITLE5=Shade of Blue
TTITLE6=That's What Home is For
TTITLE7=Evening Embrace
TTITLE8=Wistful Waltz
TTITLE9=Something About You
EXTD=\nYEAR: 2000  ID3G:   0
EXTT0=
EXTT1=
EXTT2=
EXTT3=
EXTT4=
EXTT5=
EXTT6=
EXTT7=
EXTT8=
EXTT9=
PLAYORDER=
